@startuml
skinparam shadowing false

interface Term
interface Constant
interface Collection
interface Var
interface Struct
interface Numeric
interface Integer
interface Real
interface Atom
interface Truth
interface Indicator
interface Empty
interface EmptySet
interface EmptyList
interface List
interface Cons
interface Set
interface Tuple

Term <|-down- Struct
Term <|-down- Constant
Term <|-down- Var

Constant <|-down- Numeric
Constant <|-down- Atom

Numeric <|-down- Real
Numeric <|-down- Integer

Struct <|-down- Atom
Struct <|-down- Indicator
Struct <|-down- Collection

Collection <|-down- List
Collection <|-down- Tuple
Collection <|-down- Set

Atom <|-down- Truth
Atom <|-down- Empty

Empty <|-up- EmptyList
Empty <|-up- EmptySet

List <|-down- EmptyList
List <|-down- Cons
Set <|-down- EmptySet

package clauses <<Rectangle>> {

    interface Clause
    interface Rule
    interface Directive
    interface Fact
    Clause --|> Struct
    Clause <|-down- Rule
    Clause <|-down- Directive
    Rule <|-down- Fact

}
@enduml